<svg xmlns="http://www.w3.org/2000/svg" width="16" height="16" preserveAspectRatio="xMinYMid meet"><g><path d="M1 11.5V8h14v7H1v-3.5zm14.966 6.924c0-.55-.9-1-2-1s-2 .45-2 1 .9 1 2 1 2-.45 2-1zm3 0c0-.55-.45-1-1-1s-1 .45-1 1 .45 1 1 1 1-.45 1-1zm5 0c0-.55-.45-1-1-1s-1 .45-1 1 .45 1 1 1 1-.45 1-1zm-10-3c0-.55-.45-1-1-1s-1 .45-1 1 .45 1 1 1 1-.45 1-1zm3 0c0-.55-.45-1-1-1s-1 .45-1 1 .45 1 1 1 1-.45 1-1zm3 0c0-.55-.45-1-1-1s-1 .45-1 1 .45 1 1 1 1-.45 1-1zm4 0c0-.55-.675-1-1.5-1s-1.5.45-1.5 1 .675 1 1.5 1 1.5-.45 1.5-1zm-10.25-3.732c2.338-.21 6.163-.21 8.5 0 2.338.21.425.382-4.25.382s-6.587-.172-4.25-.382zm-2.75-3.268c0-1.81.667-2 7-2s7 .19 7 2-.667 2-7 2-7-.19-7-2zm3 0c0-.55-.45-1-1-1s-1 .45-1 1 .45 1 1 1 1-.45 1-1zm3 0c0-.55-.45-1-1-1s-1 .45-1 1 .45 1 1 1 1-.45 1-1zm3 0c0-.55-.45-1-1-1s-1 .45-1 1 .45 1 1 1 1-.45 1-1zm4 0c0-.55-.675-1-1.5-1s-1.5.45-1.5 1 .675 1 1.5 1 1.5-.45 1.5-1z" fill="#fff"/><path d="M0 11.5V7h16v9H0v-4.5zm24.966 5.424v-3.5h-14v7h14v-3.5zm-13 1.5c0-.55.9-1 2-1s2 .45 2 1-.9 1-2 1-2-.45-2-1zm5 0c0-.55.45-1 1-1s1 .45 1 1-.45 1-1 1-1-.45-1-1zm5 0c0-.55.45-1 1-1s1 .45 1 1-.45 1-1 1-1-.45-1-1zm-10-3c0-.55.45-1 1-1s1 .45 1 1-.45 1-1 1-1-.45-1-1zm3 0c0-.55.45-1 1-1s1 .45 1 1-.45 1-1 1-1-.45-1-1zm3 0c0-.55.45-1 1-1s1 .45 1 1-.45 1-1 1-1-.45-1-1zm3 0c0-.55.675-1 1.5-1s1.5.45 1.5 1-.675 1-1.5 1-1.5-.45-1.5-1zm-11-7v-3h16v6h-16v-3zm15 0c0-1.81-.667-2-7-2s-7 .19-7 2 .667 2 7 2 7-.19 7-2zm-13 0c0-.55.45-1 1-1s1 .45 1 1-.45 1-1 1-1-.45-1-1zm3 0c0-.55.45-1 1-1s1 .45 1 1-.45 1-1 1-1-.45-1-1zm3 0c0-.55.45-1 1-1s1 .45 1 1-.45 1-1 1-1-.45-1-1zm3 0c0-.55.675-1 1.5-1s1.5.45 1.5 1-.675 1-1.5 1-1.5-.45-1.5-1z" fill="#7575E0"/></g></svg>