<svg id="Layer_1" xmlns="http://www.w3.org/2000/svg" viewBox="0 0 16 16" preserveAspectRatio="xMinYMid meet"><style>.st0{fill:#999999;}</style><path class="st0" d="M14.9 4.9v10.3c0 .5-.4.9-.9.9H2c-.4-.1-.8-.5-.8-1V.9c0-.5.4-.9.9-.9h8c.5 0 1.1.2 1.5.6l2.8 2.8c.2.4.5.9.5 1.5zm-1.1.8H10c-.5 0-.9-.4-.9-.8V1.1H2.2v13.7h11.4l.2-9.1zM9.1 8v3.4c0 .6-.5 1.1-1.1 1.1H4.6c-.6 0-1.1-.5-1.1-1.1V8c0-.6.5-1.1 1.1-1.1H8c.6 0 1.1.5 1.1 1.1zm3.4-.9v5.1c0 .1-.1.2-.2.3h-.1c-.1 0-.2 0-.2-.1L9.6 10v-.7L12 6.9c.1-.1.1-.1.2-.1h.1c.2.1.2.2.2.3zm-2.3-2.5h3.4c0-.1-.1-.3-.2-.4l-2.8-2.8c-.1-.1-.2-.1-.4-.2 0 0 0 3.4 0 3.4z"/></svg>