<svg id="tags" xmlns="http://www.w3.org/2000/svg" viewBox="0 0 16 12.76" preserveAspectRatio="xMinYMid meet"><defs><style>.cls-1{fill:#999999;}</style></defs><title>tags</title><path class="cls-1" d="M12.45 8.31l-4.13 4.14a1.12 1.12 0 0 1-.77.31 1.08 1.08 0 0 1-.76-.31l-6-6A2.93 2.93 0 0 1 0 4.58v-3.5A1.09 1.09 0 0 1 1.08 0h3.5a3 3 0 0 1 1.85.77l6 6a1.12 1.12 0 0 1 .31.77 1.08 1.08 0 0 1-.29.77zM2.7 1.62A1.08 1.08 0 1 0 3.77 2.7 1.08 1.08 0 0 0 2.7 1.62zm13 6.69l-4.15 4.14a1.12 1.12 0 0 1-.77.31 1.21 1.21 0 0 1-.94-.5l4-4a1.08 1.08 0 0 0 .31-.76 1.12 1.12 0 0 0-.31-.77l-6-6a3 3 0 0 0-1.85-.77h1.83a3 3 0 0 1 1.85.77l6 6a1.12 1.12 0 0 1 .33.82 1.08 1.08 0 0 1-.31.76z"/></svg>